<?xml version="1.0" standalone="no"?>
<!DOCTYPE svg PUBLIC "-//W3C//DTD SVG 20010904//EN"
 "http://www.w3.org/TR/2001/REC-SVG-20010904/DTD/svg10.dtd">
<svg version="1.0" xmlns="http://www.w3.org/2000/svg"
 width="900.000000pt" height="909.000000pt" viewBox="0 0 900.000000 909.000000"
 preserveAspectRatio="xMidYMid meet">
<metadata>
Created by potrace 1.10, written by Peter Selinger 2001-2011
</metadata>
<g transform="translate(0.000000,909.000000) scale(0.100000,-0.100000)"
fill="#ffffff" stroke="none">
<path d="M5700 8105 c-7 -8 -18 -15 -24 -15 -7 0 -29 -15 -49 -34 -32 -30 -42
-33 -76 -29 -61 8 -62 0 -59 -402 3 -342 3 -351 26 -397 20 -40 60 -77 107
-97 6 -2 39 -22 74 -43 35 -22 74 -44 85 -49 12 -5 35 -18 51 -29 17 -11 39
-24 50 -30 11 -6 34 -19 50 -29 17 -11 48 -29 70 -41 22 -12 58 -34 80 -49 22
-15 55 -33 74 -41 33 -13 35 -13 58 15 21 24 28 27 43 17 19 -12 38 -6 113 34
55 30 57 43 57 400 0 222 -4 340 -12 368 -15 52 -59 109 -100 130 -18 9 -46
26 -63 36 -16 11 -37 23 -45 27 -14 6 -145 82 -180 104 -8 5 -24 14 -35 19
-11 6 -33 19 -50 30 -16 11 -39 24 -50 30 -11 6 -33 19 -50 30 -16 11 -40 24
-52 29 -11 5 -24 15 -28 20 -9 16 -51 13 -65 -4z m135 -152 c44 -25 96 -59
116 -74 20 -16 43 -29 51 -29 7 0 22 -6 33 -14 11 -7 47 -28 80 -46 124 -68
145 -83 177 -123 l33 -41 2 -313 c1 -172 -2 -325 -6 -339 -13 -48 -120 -69
-189 -37 -43 19 -120 93 -98 93 8 0 18 -4 21 -10 3 -5 23 -10 43 -10 30 0 46
9 84 43 26 24 50 57 54 73 4 16 17 49 29 74 13 25 24 56 26 70 4 39 -12 110
-32 144 -11 19 -19 50 -19 77 0 74 -23 111 -137 223 -135 132 -144 138 -207
142 -28 2 -75 9 -104 16 l-52 12 -55 -54 c-34 -33 -55 -63 -55 -76 0 -28 -10
-54 -20 -54 -29 0 -40 171 -15 221 8 15 34 41 57 58 54 38 76 35 183 -26z
m-38 -149 c10 -14 28 -37 39 -52 l22 -27 15 38 c9 20 23 40 31 43 41 16 109
-63 118 -136 2 -20 11 -27 43 -35 53 -13 67 -23 93 -66 26 -44 28 -71 5 -109
l-17 -29 47 -50 c41 -44 47 -56 47 -93 0 -62 -10 -73 -50 -59 -18 6 -35 11
-36 11 -10 0 -1 -47 11 -64 8 -11 15 -35 15 -53 0 -26 -6 -36 -24 -45 -33 -15
-51 -6 -83 41 -16 22 -33 40 -39 41 -6 0 -17 -15 -25 -32 -16 -39 -40 -46 -74
-24 -29 19 -65 85 -65 120 0 28 -25 46 -65 46 -34 0 -83 53 -91 99 -5 23 -2
43 10 62 20 34 13 52 -34 91 -36 29 -54 87 -39 124 7 20 16 24 49 24 44 0 47
5 25 46 -18 35 -19 86 -3 102 20 20 56 14 75 -14z m-170 -381 c4 -78 22 -117
86 -183 34 -35 34 -50 1 -50 -37 0 -94 48 -115 98 -19 44 -27 190 -12 206 15
14 37 -26 40 -71z"/>
<path d="M5838 7617 c-25 -20 -28 -30 -28 -82 0 -116 95 -252 184 -262 61 -7
86 18 86 87 0 90 -56 188 -143 251 -48 35 -63 35 -99 6z m108 -152 c9 -14 15
-28 12 -30 -8 -8 -48 26 -48 41 0 22 18 17 36 -11z"/>
<path d="M6719 7533 c-26 -15 -54 -38 -62 -52 -9 -15 -31 -30 -54 -36 l-38
-11 -3 -369 c-2 -356 -2 -372 18 -411 22 -46 57 -75 140 -118 30 -16 80 -44
111 -62 31 -19 59 -34 63 -34 5 0 53 -27 156 -90 8 -5 52 -31 97 -59 90 -56
118 -62 134 -28 7 15 29 28 69 41 37 11 73 31 95 53 l35 34 0 342 c0 348 -4
383 -40 432 -21 28 -87 77 -135 101 -22 11 -58 31 -80 45 -22 14 -47 29 -55
32 -8 4 -28 16 -45 27 -16 11 -37 23 -45 27 -8 4 -74 42 -147 85 -73 43 -140
78 -150 78 -10 0 -39 -13 -64 -27z m107 -99 c41 -21 104 -58 234 -134 8 -5 33
-19 55 -31 22 -11 59 -34 83 -50 24 -16 49 -29 56 -29 16 0 77 -57 102 -95 18
-28 19 -54 22 -346 3 -327 -1 -369 -36 -369 -11 0 -30 -8 -43 -18 -13 -11 -39
-22 -58 -26 -29 -5 -41 -1 -70 22 -32 26 -104 68 -266 157 -30 17 -76 45 -102
63 -26 18 -52 31 -59 28 -6 -2 -27 12 -47 32 -42 44 -56 101 -57 222 0 47 0
139 -1 205 0 66 -3 130 -6 142 -2 11 0 29 5 40 5 10 7 36 3 58 -8 44 8 76 64
127 38 34 59 35 121 2z"/>
<path d="M6826 7322 c-3 -5 4 -19 16 -31 25 -28 46 -15 29 18 -12 21 -36 28
-45 13z"/>
<path d="M6758 7253 c-48 -11 -74 -254 -36 -339 7 -16 7 -32 -1 -55 -9 -26 -8
-37 4 -56 9 -12 18 -43 21 -68 4 -24 14 -51 24 -60 15 -14 18 -13 35 5 18 20
18 22 0 53 -15 25 -19 52 -20 127 0 82 -3 99 -22 127 -31 42 -30 71 3 83 l26
10 -7 88 c-4 48 -8 87 -9 88 0 0 -8 -1 -18 -3z"/>
<path d="M6916 7211 c6 -37 4 -41 -20 -52 -24 -11 -26 -17 -28 -83 -1 -39 -1
-82 0 -96 1 -14 4 -57 5 -97 3 -81 29 -143 60 -143 18 0 19 7 13 118 -4 64 -7
131 -7 147 0 40 15 148 23 160 8 13 -23 77 -40 83 -9 3 -11 -6 -6 -37z"/>
<path d="M7055 7150 c-4 -6 7 -10 25 -10 18 0 29 4 25 10 -3 6 -15 10 -25 10
-10 0 -22 -4 -25 -10z"/>
<path d="M7156 7114 c-4 -9 2 -40 13 -70 16 -41 18 -60 11 -86 -16 -55 -12
-83 21 -127 35 -50 35 -83 -1 -91 -27 -6 -26 -1 -22 -130 1 -45 6 -60 16 -60
17 0 20 10 36 105 6 39 15 83 20 99 6 18 6 36 0 47 -6 10 -14 67 -19 127 -5
60 -14 117 -20 128 -6 10 -15 31 -21 47 -11 30 -25 35 -34 11z"/>
<path d="M7017 7073 c-10 -10 -8 -172 3 -220 7 -32 6 -57 -6 -104 -11 -43 -14
-81 -9 -123 7 -70 8 -71 53 -109 42 -34 75 -35 90 -3 10 22 8 24 -29 29 -39 5
-78 37 -79 65 0 7 10 23 23 35 28 29 33 92 23 294 -3 64 -9 89 -26 113 -22 30
-31 36 -43 23z"/>
<path d="M6890 6641 c0 -11 5 -23 10 -26 6 -4 10 5 10 19 0 14 -4 26 -10 26
-5 0 -10 -9 -10 -19z"/>
<path d="M4194 7386 c-5 -12 -3 -21 4 -24 7 -2 12 -10 12 -18 0 -8 6 -14 13
-14 6 0 91 -45 187 -101 96 -55 202 -115 235 -133 33 -19 124 -72 203 -120 79
-47 147 -86 152 -86 5 0 15 -6 22 -14 8 -7 33 -23 56 -35 37 -19 203 -116 242
-141 8 -6 25 -15 38 -20 13 -6 43 -24 67 -40 24 -17 46 -30 49 -30 5 0 112
-62 156 -90 8 -5 33 -19 55 -31 22 -12 77 -43 121 -70 45 -27 85 -49 89 -49 3
0 30 -15 58 -33 29 -19 73 -46 99 -61 47 -26 47 -27 48 -79 0 -28 2 -365 5
-747 5 -642 4 -700 -12 -765 -14 -53 -23 -72 -41 -80 -23 -10 -23 -5 -8 -120
0 -5 -16 -11 -37 -13 -31 -3 -55 8 -145 61 -59 35 -124 71 -144 81 -21 9 -38
21 -38 26 0 6 -7 10 -15 10 -8 0 -43 19 -77 43 -79 53 -182 105 -227 114 -34
6 -34 6 -15 -13 20 -20 119 -84 130 -84 8 0 278 -162 284 -170 3 -4 15 -10 28
-14 12 -4 22 -11 22 -16 0 -4 12 -13 28 -19 30 -13 47 -23 109 -65 28 -19 48
-26 62 -21 12 3 21 10 21 13 0 4 21 19 47 32 63 33 87 55 77 71 -9 15 -7 1535
2 1649 l6 75 -49 25 c-26 14 -49 28 -51 33 -2 4 -9 7 -17 7 -7 0 -18 7 -25 15
-7 8 -21 15 -32 15 -10 0 -21 7 -24 15 -4 8 -17 15 -30 15 -13 0 -24 5 -24 10
0 6 -10 15 -22 20 -13 6 -36 19 -53 30 -16 11 -42 25 -57 31 -16 6 -28 15 -28
20 0 5 -5 9 -11 9 -6 0 -78 41 -161 90 -82 50 -155 90 -163 90 -8 0 -18 6 -22
13 -10 15 -39 34 -75 48 -16 6 -28 15 -28 20 0 5 -5 9 -11 9 -10 0 -123 63
-179 100 -8 6 -24 14 -36 19 -34 15 -129 74 -132 83 -2 4 -8 8 -14 8 -6 0 -55
27 -110 60 -54 33 -101 60 -104 60 -3 0 -88 50 -189 110 -101 61 -188 110
-193 110 -6 0 -12 3 -14 8 -4 9 -65 52 -74 52 -4 0 -13 8 -20 18 -12 16 -13
16 -20 -2z"/>
<path d="M4050 7303 c-1 -5 0 -330 0 -723 1 -582 3 -719 14 -735 8 -11 36 -31
62 -44 27 -14 56 -30 64 -37 8 -6 47 -29 85 -50 39 -20 84 -46 100 -56 17 -10
39 -22 50 -28 11 -6 34 -19 50 -30 17 -10 50 -29 75 -42 25 -13 61 -34 80 -47
19 -12 44 -27 55 -32 11 -5 27 -13 35 -19 22 -14 162 -95 180 -103 8 -4 29
-16 45 -27 17 -11 37 -23 45 -27 8 -4 44 -24 79 -46 35 -21 74 -43 85 -48 12
-5 35 -18 51 -29 17 -11 37 -23 45 -27 8 -4 47 -26 85 -48 39 -23 77 -44 85
-48 8 -4 29 -16 45 -27 17 -11 39 -24 50 -30 11 -6 34 -19 50 -30 17 -11 37
-23 45 -27 8 -4 59 -33 113 -65 54 -32 101 -58 104 -58 3 0 22 -13 43 -30 21
-16 42 -30 47 -30 6 0 29 -14 52 -31 78 -56 73 -109 72 695 l-1 720 -25 26
c-14 15 -45 37 -68 49 -23 12 -55 31 -72 41 -16 11 -39 24 -50 30 -11 6 -33
19 -50 30 -16 11 -37 23 -45 27 -18 8 -158 89 -180 103 -8 6 -24 15 -35 20
-11 6 -42 24 -70 41 -27 16 -63 37 -80 45 -16 8 -43 23 -60 34 -16 11 -39 24
-50 30 -11 6 -33 19 -50 30 -16 11 -43 26 -60 34 -16 8 -52 29 -80 45 -27 17
-59 35 -70 41 -11 6 -29 16 -40 23 -11 7 -52 30 -90 52 -39 22 -79 45 -90 52
-11 7 -29 17 -40 23 -11 6 -33 19 -50 30 -16 11 -37 23 -45 27 -8 4 -46 25
-85 48 -38 22 -77 44 -85 48 -8 4 -28 16 -45 26 -16 11 -52 32 -80 47 -72 40
-104 58 -123 69 -32 20 -77 50 -82 55 -25 27 -89 51 -90 33z m121 -149 c7 -9
22 -20 34 -25 11 -5 34 -18 50 -29 17 -11 39 -24 50 -30 11 -6 36 -20 55 -32
19 -11 53 -31 75 -42 22 -12 58 -33 80 -47 22 -14 47 -29 55 -32 8 -4 29 -16
45 -27 17 -11 37 -23 45 -27 8 -4 47 -25 85 -48 39 -22 77 -44 85 -48 8 -4 29
-16 45 -27 17 -11 37 -23 45 -27 18 -8 208 -118 230 -133 8 -6 24 -15 35 -20
11 -6 34 -19 50 -30 17 -11 37 -23 45 -27 8 -3 69 -39 135 -78 66 -39 127 -74
135 -78 8 -4 29 -16 45 -27 17 -11 44 -26 60 -34 17 -8 53 -28 80 -45 48 -28
67 -39 163 -90 l42 -23 2 -584 c1 -321 2 -596 2 -611 1 -31 -23 -42 -45 -21
-19 18 -94 68 -129 85 -8 4 -46 26 -85 48 -38 23 -77 44 -85 48 -8 4 -24 13
-35 19 -40 26 -101 63 -145 86 -74 41 -94 52 -125 72 -16 11 -37 23 -45 27 -8
4 -44 24 -79 46 -35 21 -74 43 -85 48 -12 5 -34 18 -51 29 -16 11 -39 24 -50
30 -11 5 -47 26 -80 45 -33 19 -69 39 -80 45 -11 6 -33 19 -50 30 -16 10 -41
25 -55 32 -14 8 -56 33 -95 57 -82 49 -77 46 -180 106 -44 25 -87 50 -95 55
-8 6 -24 15 -35 20 -11 6 -33 19 -50 30 -16 11 -54 31 -82 45 l-53 26 -2 602
c-2 331 -1 608 1 615 5 17 26 15 42 -4z"/>
<path d="M4484 6755 c-11 -27 5 -63 34 -78 50 -25 127 -68 157 -88 17 -10 37
-22 45 -26 8 -3 31 -19 51 -35 49 -37 109 -39 132 -4 18 27 13 36 -20 36 -21
0 -100 39 -188 92 -16 10 -39 22 -50 28 -11 6 -33 19 -50 30 -16 11 -40 25
-52 31 -13 7 -23 16 -23 21 0 14 -30 9 -36 -7z"/>
<path d="M4670 6490 c-11 -11 -27 -20 -35 -20 -17 0 -181 -46 -210 -59 -11 -5
-48 -19 -83 -31 -34 -13 -65 -27 -68 -32 -3 -5 -17 -13 -30 -18 -13 -5 -24
-14 -24 -20 0 -13 57 -13 65 0 3 6 16 10 28 10 12 0 35 7 51 15 15 8 36 15 45
15 10 0 26 7 37 15 10 8 28 15 39 15 11 0 29 6 40 14 11 7 36 16 56 20 21 4
42 13 49 21 9 11 23 13 52 9 32 -6 43 -3 60 16 21 22 21 23 3 36 -26 19 -52
17 -75 -6z"/>
<path d="M5170 6400 c-77 -9 -115 -22 -124 -45 -4 -12 -14 -14 -39 -10 -35 7
-102 -20 -128 -51 -6 -8 -29 -14 -54 -14 -46 0 -115 -24 -115 -40 0 -6 -15
-10 -33 -10 -18 0 -41 -6 -52 -14 -11 -7 -31 -16 -45 -19 -27 -6 -102 -32
-135 -46 -11 -5 -29 -12 -40 -15 -93 -23 -171 -69 -178 -101 -2 -14 -3 -25 -2
-25 17 0 123 24 130 30 6 4 21 10 35 13 24 5 47 13 160 58 30 11 66 23 80 27
14 3 34 11 45 17 11 7 33 16 48 19 17 4 27 12 24 19 -3 9 9 11 43 9 38 -3 55
1 82 20 18 12 37 29 41 36 6 9 20 12 47 7 23 -4 41 -2 45 4 11 19 88 51 122
51 29 0 85 29 103 52 3 3 18 10 33 13 15 4 27 11 27 16 0 10 -23 10 -120 -1z"/>
<path d="M5680 6121 c-8 -5 -34 -12 -57 -16 -24 -4 -45 -11 -49 -16 -3 -5 -13
-9 -22 -9 -9 0 -29 -6 -44 -14 -15 -8 -40 -17 -57 -21 -17 -4 -31 -10 -31 -15
0 -5 -12 -13 -27 -18 -63 -23 65 -5 187 26 80 20 179 93 126 92 -6 0 -18 -4
-26 -9z"/>
<path d="M5227 5983 c-17 -16 -6 -43 21 -49 28 -7 98 -43 193 -100 63 -38 87
-42 96 -17 7 19 -45 69 -89 85 -16 5 -28 14 -28 19 0 5 -6 9 -13 9 -12 0 -26
9 -74 50 -13 11 -96 14 -106 3z"/>
<path d="M5180 5940 c0 -5 7 -10 15 -10 8 0 15 5 15 10 0 6 -7 10 -15 10 -8 0
-15 -4 -15 -10z"/>
<path d="M5046 5909 c-34 -27 -33 -36 6 -44 18 -4 40 -12 49 -18 25 -16 49 -1
49 31 0 15 -5 33 -12 40 -18 18 -62 14 -92 -9z"/>
<path d="M4863 5845 c-36 -15 -42 -33 -15 -41 31 -11 96 -43 147 -74 28 -16
57 -33 65 -37 8 -4 58 -32 110 -63 52 -31 102 -59 110 -63 8 -4 29 -16 45 -26
17 -11 48 -29 70 -41 21 -12 50 -30 63 -41 27 -20 67 -25 77 -9 12 20 -35 67
-97 99 -35 18 -76 41 -93 51 -16 11 -37 23 -45 27 -8 4 -59 33 -113 65 -54 32
-100 58 -102 58 -9 0 -123 80 -127 88 -6 18 -63 22 -95 7z"/>
<path d="M5217 5843 c-16 -15 -5 -44 26 -67 19 -15 36 -26 40 -26 4 0 123 -70
201 -119 25 -16 56 -9 56 12 0 22 -42 59 -101 90 -30 16 -67 37 -84 47 -16 11
-37 23 -45 26 -8 4 -22 13 -30 19 -20 17 -55 27 -63 18z"/>
<path d="M4680 5781 c-45 -12 -27 -34 69 -83 52 -27 121 -66 153 -88 32 -21
65 -37 73 -33 21 8 18 37 -5 58 -20 19 -26 22 -102 64 -24 13 -59 36 -79 51
-40 32 -73 42 -109 31z"/>
<path d="M6750 6365 c-7 -8 -17 -15 -22 -15 -6 0 -27 -13 -48 -30 -21 -16 -48
-30 -60 -30 -12 0 -30 -10 -41 -22 -17 -22 -18 -45 -19 -364 0 -305 2 -346 18
-381 28 -63 58 -97 104 -121 23 -13 57 -32 73 -42 17 -11 39 -24 50 -30 11 -6
34 -19 50 -30 17 -11 39 -24 50 -29 11 -5 37 -21 58 -35 21 -14 44 -26 50 -26
7 0 18 -5 24 -11 11 -11 36 -26 78 -49 11 -6 34 -19 50 -30 17 -10 44 -26 62
-35 31 -16 33 -16 66 9 19 14 43 26 55 26 29 0 99 38 117 63 13 18 15 78 15
361 0 229 -4 352 -12 380 -14 51 -73 126 -98 126 -10 0 -22 5 -25 11 -4 5 -17
15 -28 20 -12 5 -38 19 -57 30 -19 12 -64 37 -100 57 -36 19 -67 38 -70 43 -3
4 -17 13 -30 19 -14 5 -38 19 -55 30 -16 11 -39 24 -50 29 -11 5 -37 21 -58
35 -21 14 -42 26 -46 26 -5 0 -14 7 -21 15 -7 8 -25 15 -40 15 -15 0 -33 -7
-40 -15z m85 -106 c31 -12 59 -27 62 -35 3 -8 12 -14 21 -14 8 0 23 -6 31 -13
22 -18 170 -107 179 -107 4 0 29 -16 56 -35 27 -19 55 -35 61 -35 21 0 114
-96 130 -133 14 -35 19 -126 14 -312 -1 -38 0 -120 1 -180 3 -105 -8 -171 -32
-202 -16 -20 -123 -27 -155 -9 -15 8 -46 24 -68 34 -22 11 -46 27 -54 36 -7 9
-21 16 -31 16 -9 0 -34 14 -55 30 -21 17 -43 30 -50 30 -7 0 -18 7 -25 15 -6
8 -45 32 -86 54 -91 49 -144 89 -144 107 0 8 -5 14 -11 14 -20 0 -39 69 -39
142 0 102 9 112 57 62 21 -21 44 -51 50 -65 16 -37 72 -99 90 -99 8 0 21 -17
30 -37 17 -42 56 -83 79 -83 7 0 14 -4 14 -10 0 -5 5 -10 10 -10 32 0 -10 49
-42 50 -22 0 -24 33 -4 49 8 7 18 31 21 54 4 23 11 47 15 52 5 6 13 33 18 60
9 44 30 132 49 203 4 18 12 22 44 22 21 0 40 -4 44 -10 3 -5 -4 -35 -15 -67
-12 -32 -25 -76 -30 -98 -5 -22 -16 -69 -25 -105 -24 -94 -37 -172 -30 -178 3
-4 15 -1 25 6 28 17 48 15 55 -8 3 -10 20 -26 37 -35 75 -37 197 30 213 118
11 56 -65 218 -130 277 -15 14 -45 49 -67 79 l-40 53 -49 -4 c-27 -3 -58 -13
-68 -22 -25 -23 -55 -17 -59 11 -2 12 -10 27 -18 33 -12 11 -14 5 -14 -34 0
-42 -3 -48 -27 -56 -70 -26 -90 -48 -60 -67 13 -9 30 -33 51 -78 8 -16 24 -41
35 -55 17 -22 18 -27 5 -52 -14 -27 -38 -35 -60 -20 -6 4 -28 42 -49 85 -21
42 -42 77 -47 77 -4 0 -8 6 -8 13 0 8 -9 25 -20 37 -29 34 -21 59 25 84 22 11
41 24 43 29 2 4 10 7 18 7 7 0 19 9 26 20 7 11 23 20 35 20 13 0 23 4 23 9 0
13 -47 22 -67 13 -73 -35 -131 -67 -146 -80 -32 -28 -39 -3 -35 144 l3 139 40
42 c47 50 68 53 150 22z m349 -475 c9 -8 16 -20 16 -25 0 -5 18 -38 40 -74 22
-36 40 -70 40 -75 0 -5 8 -17 19 -27 10 -10 21 -30 25 -45 5 -23 2 -27 -24
-33 -17 -4 -30 -11 -30 -16 0 -5 -6 -9 -13 -9 -8 0 -24 -9 -37 -20 -52 -45
-100 -38 -100 13 0 30 4 35 50 55 28 12 50 27 50 33 0 6 -11 25 -23 42 -33 45
-87 142 -87 157 0 15 29 39 47 40 6 0 19 -7 27 -16z"/>
<path d="M2755 5940 c-16 -4 -77 -8 -135 -9 -58 -1 -132 -6 -165 -12 -33 -6
-78 -14 -100 -18 -99 -18 -204 -96 -246 -184 -38 -78 -43 -105 -47 -242 -2
-112 0 -147 13 -180 23 -55 49 -109 55 -115 3 -3 16 -19 28 -37 12 -17 55 -55
95 -84 39 -29 85 -65 100 -81 24 -24 37 -28 83 -28 70 0 139 32 214 99 l55 49
-42 39 c-33 31 -42 47 -48 85 -9 62 11 115 55 146 32 22 34 22 64 4 17 -10 36
-28 42 -40 16 -32 22 -36 36 -25 17 13 275 25 283 13 3 -5 0 -18 -7 -30 -10
-15 -23 -20 -55 -20 -51 0 -65 -16 -26 -30 15 -5 35 -14 43 -19 20 -12 63 11
77 41 6 12 17 43 24 67 13 44 13 45 -15 65 -16 12 -43 34 -60 49 -33 30 -68
43 -86 32 -16 -10 7 -35 48 -52 22 -9 32 -20 30 -30 -2 -14 -19 -17 -93 -19
-50 -2 -99 -5 -110 -6 -19 -3 -20 4 -23 86 -3 95 9 126 50 126 63 0 140 68
165 146 15 50 15 55 -1 91 -19 42 -90 101 -145 120 -39 14 -109 15 -156 3z
m91 -110 c13 0 38 -13 55 -28 46 -41 35 -74 -48 -148 -39 -34 -73 -75 -84 -99
-21 -47 -43 -69 -119 -117 -70 -45 -83 -60 -109 -132 -23 -62 -22 -116 1 -163
14 -28 -1 -48 -51 -69 -46 -19 -67 -13 -133 38 -74 58 -125 114 -155 173 -23
43 -27 65 -31 166 -4 111 -3 117 26 180 60 130 127 163 380 185 97 8 179 18
182 20 3 3 18 3 34 0 16 -3 39 -6 52 -6z"/>
<path d="M3680 5702 c-19 -9 -41 -23 -48 -29 -7 -7 -20 -13 -28 -13 -8 0 -14
-4 -14 -9 0 -5 -12 -14 -27 -20 -16 -6 -37 -16 -48 -23 -11 -7 -38 -24 -60
-38 -22 -14 -47 -29 -55 -33 -8 -4 -28 -16 -45 -27 -16 -10 -45 -27 -63 -36
-19 -9 -36 -24 -40 -32 -6 -16 40 -62 62 -62 7 0 21 -9 31 -20 9 -10 33 -24
52 -31 20 -6 55 -24 78 -40 48 -33 63 -36 71 -14 4 8 14 15 24 15 10 0 23 7
30 15 7 8 21 15 32 15 10 0 21 7 24 15 4 8 14 15 24 15 10 0 23 7 30 15 7 8
21 15 32 15 10 0 21 7 24 15 4 8 15 15 25 15 11 0 22 7 25 15 4 8 11 15 17 15
15 0 96 40 103 51 3 5 14 9 24 9 13 0 22 9 26 27 8 29 -18 57 -68 75 -16 6
-28 14 -28 19 0 5 -6 9 -13 9 -7 0 -35 15 -63 33 -60 38 -93 57 -96 56 -2 0
-19 -8 -38 -17z m101 -76 c24 -14 63 -35 87 -47 23 -13 41 -28 39 -33 -4 -12
-153 -99 -199 -117 -16 -6 -28 -15 -28 -20 0 -5 -6 -9 -14 -9 -8 0 -21 -6 -28
-13 -7 -7 -27 -21 -44 -32 l-32 -18 -58 33 c-33 18 -68 38 -79 44 -79 44 -82
58 -20 82 25 9 45 21 45 25 0 5 9 9 19 9 11 0 23 5 26 11 4 5 17 15 28 20 34
15 68 36 80 48 6 6 19 11 28 11 9 0 22 7 29 15 19 22 71 18 121 -9z"/>
<path d="M4220 5592 c0 -5 7 -16 16 -23 14 -12 16 -11 13 5 -4 20 -29 35 -29
18z"/>
<path d="M4234 5503 c-30 -22 -14 -83 22 -83 8 0 33 -12 57 -27 23 -15 57 -36
76 -46 19 -10 52 -31 75 -45 44 -28 51 -32 139 -80 55 -31 97 -41 97 -24 0 10
-94 82 -108 82 -6 0 -17 6 -24 13 -22 21 -122 84 -145 91 -11 4 -24 13 -27 21
-3 8 -11 15 -18 15 -19 1 -66 45 -70 66 -3 20 -53 31 -74 17z"/>
<path d="M2946 5203 c-14 -15 -35 -72 -41 -118 -4 -25 -11 -45 -16 -45 -5 0
-15 -13 -23 -29 -15 -29 -32 -37 -121 -64 -38 -11 -51 -20 -53 -36 -3 -19 1
-21 57 -21 33 0 63 5 66 10 3 6 14 10 23 10 10 0 39 19 66 43 52 45 62 72 73
200 4 45 2 57 -9 57 -8 0 -18 -3 -22 -7z"/>
<path d="M4783 5168 c-49 -25 -52 -33 -20 -49 12 -7 24 -15 27 -18 3 -3 39
-23 80 -44 41 -21 89 -47 105 -57 17 -11 39 -24 50 -30 11 -6 34 -19 50 -30
17 -11 37 -23 45 -26 8 -4 34 -22 57 -41 56 -45 51 -45 127 23 27 24 27 44 2
44 -17 0 -91 34 -131 60 -16 11 -37 23 -45 27 -8 4 -58 33 -111 65 -53 32
-100 58 -105 58 -4 0 -15 6 -23 14 -29 26 -64 27 -108 4z"/>
<path d="M3375 5061 c-28 -5 -60 -13 -70 -18 -11 -6 -38 -18 -60 -28 -54 -25
-369 -216 -401 -243 -5 -5 -20 -15 -32 -21 -12 -6 -22 -16 -22 -21 0 -16 66
-12 80 5 7 8 27 17 46 21 19 3 37 11 40 16 3 5 17 13 30 18 13 5 69 39 123 75
99 64 209 115 266 121 17 2 46 7 65 10 40 7 90 -24 90 -56 0 -31 -63 -63 -108
-55 -35 6 -44 2 -95 -39 -30 -25 -61 -46 -67 -46 -9 0 -57 -22 -110 -52 -8 -4
-25 -12 -37 -18 -29 -12 -138 -87 -150 -103 -11 -14 -24 -57 -16 -57 10 0 118
56 121 63 2 4 7 7 12 7 11 0 127 77 135 90 12 20 58 9 98 -23 23 -19 49 -37
57 -41 8 -3 29 -15 45 -26 17 -11 37 -23 45 -27 8 -3 58 -32 110 -63 52 -31
102 -60 110 -64 8 -4 24 -12 35 -19 11 -7 63 -37 115 -67 52 -30 104 -60 115
-67 11 -7 27 -15 35 -19 8 -4 33 -19 55 -33 52 -33 112 -68 150 -87 17 -8 44
-23 60 -34 32 -20 158 -83 188 -93 10 -4 17 -17 17 -31 0 -21 -6 -26 -35 -32
-19 -3 -38 -10 -41 -15 -3 -5 -13 -9 -22 -9 -9 0 -75 -29 -147 -64 -108 -53
-243 -117 -350 -166 -47 -22 -141 -36 -178 -27 -21 5 -41 7 -43 4 -3 -3 9 -19
28 -36 38 -35 62 -37 159 -17 60 13 91 27 203 88 17 10 49 22 71 29 22 6 45
15 50 19 18 15 166 90 177 90 5 0 23 11 40 25 16 14 38 25 47 25 10 0 31 10
47 22 23 18 43 23 104 25 41 1 90 -3 108 -9 45 -14 60 1 37 35 -9 15 -14 31
-10 36 3 6 45 30 93 54 105 52 202 113 202 127 0 16 -56 12 -70 -5 -7 -8 -19
-15 -26 -15 -8 0 -14 -4 -14 -9 0 -5 -12 -14 -27 -20 -16 -6 -41 -20 -58 -31
-16 -11 -38 -23 -47 -26 -10 -4 -18 -10 -18 -14 0 -16 -72 -50 -104 -50 -18 0
-47 -5 -64 -11 -37 -13 -33 -15 -259 122 -87 53 -197 116 -244 142 -47 25
-138 77 -203 116 -64 39 -119 71 -122 71 -5 0 -230 131 -294 171 -8 5 -41 21
-72 36 -31 15 -59 34 -61 43 -6 24 3 40 23 40 9 0 23 7 30 15 9 11 32 15 83
15 52 0 73 4 81 16 16 21 72 21 94 0 18 -15 20 -15 37 4 18 20 17 20 -7 20
-30 0 -73 43 -65 64 9 22 25 20 71 -9 31 -19 44 -22 59 -13 19 10 18 12 -18
29 -21 11 -44 19 -51 19 -7 0 -35 23 -62 51 -45 46 -54 50 -103 54 -30 2 -77
0 -104 -4z"/>
<path d="M3652 5048 c-20 -20 -14 -36 20 -52 41 -21 55 -20 68 3 8 16 4 22
-30 40 -48 25 -43 24 -58 9z"/>
<path d="M4559 4983 c-118 -60 -154 -82 -154 -97 0 -17 35 -46 75 -62 8 -3 22
-10 30 -15 8 -5 22 -12 30 -16 8 -4 44 -24 79 -46 35 -21 74 -43 85 -48 12 -5
35 -18 51 -28 106 -68 137 -73 198 -29 17 13 39 28 49 33 67 39 164 99 168
105 3 4 14 12 25 18 18 10 18 11 3 17 -27 11 -132 -29 -258 -96 -38 -21 -85
-25 -95 -9 -3 6 -17 10 -29 10 -13 0 -29 7 -36 15 -7 8 -20 15 -30 15 -10 0
-37 16 -60 35 -23 19 -48 35 -56 35 -21 0 -54 41 -54 67 0 17 12 31 47 51 94
55 152 122 105 122 -10 0 -88 -35 -173 -77z"/>
<path d="M956 4982 c-3 -9 -5 -54 -5 -99 1 -77 3 -83 32 -113 17 -17 53 -42
81 -56 28 -14 74 -39 101 -55 84 -50 115 -57 115 -28 0 18 -44 69 -59 69 -9 1
-30 13 -48 28 -23 20 -29 31 -23 42 8 12 13 13 27 3 10 -7 43 -24 73 -38 93
-44 153 -77 207 -113 54 -35 133 -55 133 -33 0 6 -5 11 -11 11 -5 0 -31 16
-56 35 -25 19 -52 35 -59 35 -8 0 -14 4 -14 10 0 5 -11 12 -25 16 -14 3 -25
10 -25 14 0 5 -9 12 -21 15 -11 4 -59 30 -105 58 -91 56 -90 55 -178 106 -33
19 -76 51 -97 72 -31 31 -39 35 -43 21z m174 -187 c0 -8 -4 -15 -9 -15 -5 0
-14 7 -21 15 -10 13 -9 15 9 15 12 0 21 -6 21 -15z"/>
<path d="M3766 4968 c-17 -10 -17 -12 10 -34 32 -26 94 -33 94 -11 0 34 -70
64 -104 45z"/>
<path d="M5383 4945 c-3 -9 -3 -19 1 -22 7 -7 36 16 36 28 0 15 -30 10 -37 -6z"/>
<path d="M6715 4941 c-45 -27 -62 -86 -46 -154 7 -29 24 -76 38 -104 25 -52
27 -53 68 -53 l42 0 7 61 c10 98 7 212 -7 230 -12 16 -50 39 -64 39 -4 0 -22
-8 -38 -19z"/>
<path d="M1997 4915 c-42 -6 -83 -17 -89 -23 -7 -7 -19 -12 -28 -12 -21 0
-133 -101 -158 -143 -34 -55 -73 -355 -72 -550 0 -44 -4 -59 -16 -64 -10 -3
-22 0 -28 8 -12 15 -61 51 -86 62 -8 4 -28 16 -45 27 -16 11 -47 27 -67 36
-35 15 -38 19 -38 58 0 22 7 66 15 96 24 91 21 104 -32 139 -25 17 -50 31 -54
31 -10 0 -16 -40 -23 -141 -8 -113 -5 -109 -94 -103 -74 5 -78 4 -112 -25
l-35 -30 3 -137 c1 -75 9 -168 17 -206 8 -38 15 -96 15 -128 0 -32 7 -94 15
-137 8 -43 15 -103 15 -134 0 -31 5 -81 10 -110 7 -36 7 -69 1 -99 -27 -122
-37 -221 -26 -238 7 -9 15 -60 18 -112 7 -118 25 -170 80 -229 72 -77 76 -86
66 -171 -4 -41 -13 -91 -18 -110 -6 -19 -11 -55 -11 -80 0 -25 -7 -70 -15
-100 -8 -30 -15 -75 -15 -100 0 -25 -7 -70 -15 -100 -8 -30 -15 -75 -15 -100
0 -25 -7 -72 -15 -105 -8 -33 -15 -80 -15 -105 0 -25 -7 -70 -15 -100 -8 -30
-15 -75 -15 -100 0 -25 -7 -72 -15 -105 -8 -33 -15 -78 -15 -99 0 -22 -7 -63
-16 -91 -16 -48 -16 -53 1 -78 19 -30 59 -36 87 -14 17 12 30 78 48 242 5 44
14 96 19 115 6 19 11 55 11 80 1 25 7 72 15 105 8 33 15 79 15 102 0 23 7 68
15 100 8 31 15 78 15 103 0 25 7 70 15 100 8 30 15 75 15 100 0 25 7 72 15
105 8 33 15 87 15 121 0 35 6 68 14 79 13 18 14 18 41 -1 15 -10 35 -23 44
-29 9 -5 18 -12 21 -15 13 -14 119 -77 175 -106 17 -8 44 -23 60 -34 32 -20
52 -32 125 -72 25 -13 63 -35 85 -49 22 -14 47 -29 55 -32 8 -4 29 -16 45 -27
17 -11 39 -24 50 -30 11 -6 47 -26 80 -45 33 -19 69 -39 80 -45 11 -6 34 -19
50 -29 17 -11 59 -35 95 -54 36 -19 79 -42 95 -51 17 -9 36 -16 44 -16 9 0 11
-7 7 -22 -4 -13 -12 -52 -17 -88 -5 -36 -15 -90 -20 -120 -6 -30 -15 -93 -20
-140 -4 -47 -13 -101 -19 -120 -5 -19 -10 -55 -10 -80 0 -25 -7 -70 -15 -100
-8 -30 -15 -75 -15 -100 0 -25 -7 -70 -15 -100 -8 -30 -15 -75 -15 -100 0 -25
-7 -70 -15 -100 -8 -30 -15 -75 -15 -100 0 -25 -6 -72 -14 -105 -8 -33 -17
-86 -21 -117 -6 -54 -5 -59 20 -83 25 -22 29 -23 54 -10 36 18 51 54 51 123 0
31 5 73 11 92 5 19 14 71 19 115 10 89 23 179 45 301 8 45 15 99 15 120 0 22
7 64 15 94 8 30 15 75 15 100 0 25 7 70 15 100 8 30 15 74 15 98 0 24 6 73 14
110 24 109 26 173 7 179 -24 9 -61 45 -61 60 0 22 -89 111 -144 143 -28 17
-60 36 -71 43 -11 6 -38 23 -60 36 -22 14 -74 42 -117 63 -42 22 -88 50 -103
64 -14 13 -31 24 -36 24 -12 0 -71 31 -79 41 -3 4 -23 15 -45 26 -22 10 -84
46 -138 79 -54 32 -119 70 -145 84 -26 14 -59 33 -74 43 -20 14 -43 18 -98 16
-91 -3 -108 12 -117 97 -6 56 -34 109 -79 149 -42 37 -88 409 -54 430 6 3 10
17 10 30 0 14 5 45 12 69 9 34 9 60 -1 112 -6 38 -13 103 -15 144 -5 93 -33
329 -46 393 -13 64 -13 170 1 201 8 17 30 32 68 46 31 12 66 27 78 32 25 12
53 -3 53 -29 0 -40 140 -143 194 -143 14 0 28 -5 32 -11 4 -7 22 -9 48 -5 79
12 111 7 166 -25 8 -5 24 -14 35 -19 11 -6 34 -19 50 -30 17 -10 54 -30 83
-45 28 -14 52 -29 52 -34 0 -5 11 -12 25 -15 14 -4 25 -11 25 -16 0 -6 6 -10
14 -10 8 0 21 -6 28 -12 7 -7 31 -22 52 -33 22 -11 44 -24 50 -30 6 -5 34 -21
61 -34 43 -21 97 -55 153 -96 29 -22 158 -152 182 -184 14 -18 33 -42 43 -52
9 -11 17 -23 17 -29 0 -5 5 -10 10 -10 14 0 13 2 -17 61 -33 63 -232 269 -260
269 -6 0 -18 6 -25 13 -22 21 -114 77 -127 77 -7 0 -30 14 -51 30 -21 17 -40
30 -44 30 -4 0 -92 50 -176 100 -8 5 -31 17 -50 27 -19 9 -56 34 -81 55 -26
21 -51 38 -57 38 -14 0 -24 64 -17 104 4 19 8 85 10 148 6 247 34 321 151 401
92 63 212 64 282 3 12 -11 22 -28 22 -38 0 -10 5 -18 10 -18 6 0 10 24 10 54
0 73 16 85 67 53 21 -14 49 -37 63 -52 32 -35 131 -85 169 -85 59 0 210 -69
211 -96 0 -13 -113 -24 -257 -24 -62 0 -103 -4 -103 -10 0 -6 35 -10 83 -11
190 -3 201 -4 257 -31 31 -14 62 -33 69 -42 7 -9 17 -16 22 -16 4 0 51 -30
104 -66 96 -68 354 -320 377 -369 15 -33 -16 -100 -55 -116 -33 -14 -83 -14
-119 0 -14 5 -53 11 -88 12 l-62 3 -15 -40 c-30 -82 -36 -123 -34 -264 2 -80
3 -158 3 -175 0 -68 44 -357 59 -390 7 -17 18 -91 32 -215 2 -14 7 -33 11 -43
5 -10 6 -20 3 -24 -12 -11 -78 8 -83 25 -3 9 -12 29 -20 44 -8 14 -14 38 -14
52 0 14 -4 26 -8 26 -5 0 -24 46 -42 103 -19 56 -42 113 -52 126 -10 13 -18
35 -18 48 0 13 -6 36 -14 51 -7 15 -16 52 -20 82 -10 83 -20 89 -39 22 -14
-52 -15 -64 -1 -108 14 -48 36 -102 54 -136 6 -10 10 -23 10 -30 0 -7 6 -24
13 -38 7 -14 24 -54 37 -90 12 -36 27 -69 32 -74 4 -6 8 -16 8 -24 0 -13 31
-89 50 -124 6 -10 10 -24 10 -33 0 -8 7 -33 16 -55 16 -40 37 -52 47 -27 2 7
30 25 61 40 55 27 56 28 56 70 -1 23 -5 62 -11 87 -5 25 -13 70 -18 100 -9 63
-26 134 -47 201 -8 26 -14 56 -14 67 0 12 -6 41 -14 64 -16 46 -26 226 -16
268 5 22 10 24 44 22 28 -3 37 0 34 10 -3 7 -17 15 -33 18 -44 8 -51 29 -37
110 7 39 12 94 12 123 0 123 20 126 109 18 36 -43 69 -53 91 -26 7 8 19 15 26
15 24 0 93 41 118 70 13 16 33 49 46 74 12 25 26 48 31 52 20 12 4 35 -113
154 -68 69 -153 157 -189 195 -66 70 -120 115 -138 115 -5 0 -22 7 -38 14 -15
8 -35 18 -43 21 -8 3 -28 14 -45 25 -16 11 -39 24 -51 29 -25 11 -64 74 -64
102 0 11 -13 34 -29 50 -27 27 -35 29 -104 29 -111 0 -216 46 -257 112 -29 49
-67 68 -135 69 -33 0 -80 3 -105 7 -25 4 -80 3 -123 -3z"/>
<path d="M3888 4904 c-13 -13 6 -44 34 -53 34 -12 78 -5 78 13 -1 21 -97 56
-112 40z"/>
<path d="M3750 4875 c-11 -14 -10 -17 8 -22 12 -3 22 -9 22 -14 0 -13 48 -11
56 2 17 29 -64 61 -86 34z"/>
<path d="M2598 4838 c-7 -18 2 -39 13 -32 12 7 12 44 0 44 -5 0 -11 -6 -13
-12z"/>
<path d="M4013 4822 c-9 -16 -6 -21 22 -36 38 -21 68 -18 73 6 2 10 -9 22 -29
32 -41 20 -52 20 -66 -2z"/>
<path d="M3685 4811 c-7 -12 51 -41 82 -41 29 0 30 14 1 34 -25 18 -74 21 -83
7z"/>
<path d="M3871 4811 c-11 -7 -7 -14 20 -30 33 -20 79 -28 79 -14 0 13 -53 53
-69 53 -9 0 -22 -4 -30 -9z"/>
<path d="M3560 4795 c0 -17 30 -35 59 -35 33 0 33 17 0 34 -40 20 -59 20 -59
1z"/>
<path d="M3437 4773 c-12 -11 -8 -33 6 -33 8 0 25 -9 38 -20 24 -22 70 -24 76
-3 3 7 -14 23 -36 37 -40 26 -71 33 -84 19z"/>
<path d="M6911 4744 c-11 -15 -21 -34 -21 -44 0 -15 -17 -58 -40 -102 -7 -13
-1 -28 25 -63 32 -41 35 -51 35 -109 0 -58 3 -67 28 -86 55 -44 43 -120 -29
-185 -32 -28 -39 -30 -114 -29 -70 0 -86 4 -125 28 -63 39 -89 65 -111 109
-11 20 -26 37 -33 37 -25 0 -66 -66 -66 -107 0 -31 7 -44 41 -75 118 -108 331
-130 485 -50 36 19 51 32 104 90 20 22 27 62 11 62 -5 0 -13 10 -16 21 -9 28
-51 66 -93 85 -37 16 -37 31 -1 90 12 20 19 50 19 83 0 57 -11 64 -53 31 -14
-11 -30 -20 -36 -20 -16 0 -13 40 3 46 16 6 49 140 44 181 -4 37 -31 40 -57 7z"/>
<path d="M3820 4750 c-8 -5 -12 -11 -10 -13 27 -22 59 -37 77 -37 32 0 29 22
-5 38 -44 22 -46 22 -62 12z"/>
<path d="M4126 4752 c-9 -15 52 -52 84 -52 37 0 40 21 5 44 -26 17 -80 22 -89
8z"/>
<path d="M4000 4735 c-15 -18 -15 -17 26 -37 26 -13 34 -13 49 -2 10 8 17 15
14 17 -21 16 -60 37 -67 37 -5 0 -15 -7 -22 -15z"/>
<path d="M3682 4727 c-9 -10 -3 -17 23 -31 18 -10 38 -15 44 -12 21 13 11 34
-20 45 -39 13 -34 14 -47 -2z"/>
<path d="M4261 4681 c-12 -21 -5 -29 40 -48 20 -9 30 -7 50 7 l24 19 -27 10
c-14 5 -29 15 -33 20 -10 18 -43 13 -54 -8z"/>
<path d="M3586 4675 c-3 -10 6 -21 27 -32 18 -10 41 -23 52 -30 11 -7 31 -17
45 -23 13 -6 27 -14 30 -18 3 -4 16 -13 30 -19 14 -7 48 -26 75 -43 28 -16 62
-35 78 -41 15 -6 27 -15 27 -20 0 -5 5 -9 11 -9 6 0 49 -23 95 -51 60 -36 90
-48 105 -44 37 12 15 39 -61 77 -41 20 -79 40 -85 45 -5 4 -31 18 -57 31 -26
12 -48 26 -50 30 -2 4 -25 18 -53 31 -27 13 -63 34 -80 46 -16 12 -40 25 -52
29 -13 4 -23 11 -23 16 0 4 -11 11 -25 14 -14 4 -25 11 -25 16 0 16 -57 12
-64 -5z"/>
<path d="M3948 4673 c-15 -15 -14 -17 20 -34 31 -16 38 -17 50 -5 17 17 8 36
-17 36 -9 0 -21 4 -27 10 -6 7 -15 4 -26 -7z"/>
<path d="M6608 4676 c-23 -17 -24 -89 -3 -130 8 -15 15 -34 15 -41 0 -7 12
-36 26 -64 15 -27 24 -57 20 -66 -10 -27 -36 -29 -68 -5 -39 29 -63 17 -63
-31 0 -32 2 -34 30 -31 41 4 65 4 95 0 22 -3 25 1 28 32 2 19 8 39 13 45 15
15 11 142 -6 182 -8 19 -15 43 -15 53 0 18 -36 70 -48 70 -4 0 -15 -7 -24 -14z"/>
<path d="M3802 4661 c-22 -13 36 -46 76 -42 20 2 14 16 -17 34 -33 19 -40 20
-59 8z"/>
<path d="M4110 4655 c0 -8 7 -15 16 -15 8 0 22 -7 30 -15 18 -18 24 -18 44 -5
13 9 12 13 -9 30 -28 24 -81 27 -81 5z"/>
<path d="M4386 4615 c-18 -13 -15 -35 5 -35 6 0 17 -7 26 -16 21 -21 57 -14
61 12 2 16 -5 25 -30 35 -18 7 -35 14 -38 16 -3 1 -13 -4 -24 -12z"/>
<path d="M4056 4601 c-11 -17 64 -54 89 -45 22 9 19 18 -14 37 -32 18 -67 22
-75 8z"/>
<path d="M4247 4602 c-17 -7 -16 -9 3 -30 21 -22 74 -31 84 -14 5 9 -47 53
-61 51 -4 0 -16 -4 -26 -7z"/>
<path d="M3930 4580 c0 -23 37 -36 76 -26 26 7 26 7 -12 26 -48 25 -64 25 -64
0z"/>
<path d="M4497 4543 c-4 -3 3 -17 15 -30 15 -16 33 -23 60 -23 43 0 48 13 16
41 -23 18 -78 26 -91 12z"/>
<path d="M4190 4521 c0 -21 19 -31 61 -31 35 0 37 12 4 34 -34 22 -65 21 -65
-3z"/>
<path d="M4362 4520 c-11 -17 -10 -21 5 -26 10 -3 28 -11 40 -16 17 -8 26 -8
38 2 22 18 19 24 -23 43 -48 21 -45 21 -60 -3z"/>
<path d="M5309 4518 c-11 -21 -11 -22 4 -10 9 7 28 17 44 22 l28 8 -32 1 c-24
1 -35 -5 -44 -21z"/>
<path d="M1471 4497 c36 -34 76 -57 100 -57 22 0 22 0 3 21 -21 23 -89 59
-112 59 -10 0 -7 -7 9 -23z"/>
<path d="M4045 4511 c-6 -10 49 -41 72 -41 18 0 16 37 -3 44 -23 9 -62 7 -69
-3z"/>
<path d="M4636 4474 c-23 -22 -20 -27 20 -49 26 -14 40 -16 52 -9 26 17 25 33
-1 43 -14 6 -28 15 -32 20 -9 15 -21 14 -39 -5z"/>
<path d="M5312 4472 c-22 -11 -35 -25 -39 -43 -3 -15 -11 -30 -19 -33 -11 -4
-14 -39 -14 -175 l0 -169 28 -18 c56 -38 109 -56 183 -61 74 -6 76 -5 108 26
34 33 55 38 95 20 37 -17 64 13 68 76 6 120 0 159 -32 193 -21 23 -30 43 -30
67 0 19 -4 37 -10 40 -5 3 -10 -1 -10 -9 0 -9 -18 -27 -40 -41 -22 -14 -40
-29 -40 -34 0 -14 29 -41 44 -41 30 0 46 -36 46 -102 l0 -65 -42 1 c-41 1 -43
0 -46 -30 -3 -28 -7 -32 -45 -39 -70 -12 -103 -8 -145 20 -58 38 -74 81 -73
193 0 36 -7 81 -16 103 -8 22 -13 43 -9 46 3 3 21 -1 38 -9 64 -30 94 -35 164
-27 60 7 155 43 154 59 -1 12 -28 36 -59 53 -43 23 -210 22 -259 -1z"/>
<path d="M4312 4458 c-9 -9 -4 -16 18 -30 35 -21 56 -23 66 -7 15 25 -62 59
-84 37z"/>
<path d="M4172 4452 c-9 -6 -7 -14 10 -29 23 -21 38 -26 71 -24 27 2 20 17
-17 40 -37 23 -45 25 -64 13z"/>
<path d="M4475 4451 c-3 -5 15 -20 40 -32 36 -18 48 -20 58 -10 9 10 7 16 -12
32 -24 20 -76 26 -86 10z"/>
<path d="M4753 4403 c-22 -8 -14 -28 18 -42 17 -7 42 -24 56 -37 14 -13 35
-24 45 -24 23 0 58 17 58 29 0 8 -141 81 -156 80 -5 0 -15 -3 -21 -6z"/>
<path d="M4435 4390 c-8 -12 34 -49 55 -50 36 0 40 16 10 38 -32 24 -55 28
-65 12z"/>
<path d="M4292 4378 c-19 -19 -15 -26 24 -44 26 -12 41 -14 52 -7 26 16 24 27
-9 46 -36 20 -51 21 -67 5z"/>
<path d="M4610 4375 c0 -18 31 -35 64 -35 38 0 40 17 5 34 -40 20 -69 20 -69
1z"/>
<path d="M4567 4323 c-15 -15 -5 -32 25 -42 25 -9 35 -8 46 3 12 12 9 16 -19
30 -36 18 -43 19 -52 9z"/>
<path d="M4719 4286 c-11 -19 -26 -37 -34 -40 -21 -8 -18 -21 7 -33 22 -10 31
-7 102 35 50 30 44 55 -17 66 -35 6 -38 5 -58 -28z"/>
<path d="M4216 4302 c-7 -11 48 -52 69 -52 23 0 18 19 -9 30 -13 5 -27 14 -31
19 -7 13 -22 14 -29 3z"/>
<path d="M4407 4303 c-12 -11 -8 -23 7 -23 7 0 19 -7 26 -15 7 -8 21 -15 30
-15 10 0 20 -4 22 -8 7 -18 129 -83 150 -80 52 7 7 48 -122 111 -14 6 -31 17
-38 24 -14 14 -64 18 -75 6z"/>
<path d="M4403 4234 c-4 -11 -13 -14 -29 -10 -17 5 -24 2 -24 -8 0 -20 32 -30
45 -13 5 7 18 16 28 20 10 4 15 11 12 17 -9 15 -25 12 -32 -6z"/>
<path d="M4467 4154 c-10 -11 3 -24 24 -24 10 0 19 -4 19 -9 0 -13 28 -22 35
-10 4 5 -2 12 -12 16 -10 4 -24 13 -31 20 -15 14 -25 16 -35 7z"/>
<path d="M7028 4025 c-32 -34 -58 -69 -58 -78 0 -8 -9 -19 -20 -22 -11 -3 -20
-14 -20 -24 0 -29 -41 -113 -64 -133 -29 -24 -83 -33 -109 -19 -72 39 -87 49
-116 73 -18 16 -49 64 -72 110 -21 46 -51 97 -65 113 l-26 30 5 -35 c10 -67
25 -122 36 -133 6 -6 11 -22 11 -37 0 -45 42 -112 85 -136 22 -13 49 -23 59
-24 11 0 28 -7 37 -16 27 -24 156 -33 165 -11 3 9 19 19 35 22 44 10 127 96
121 126 -1 9 11 56 28 105 58 164 52 179 -32 89z"/>
<path d="M2820 4040 c0 -20 25 -38 36 -27 8 7 -15 47 -26 47 -6 0 -10 -9 -10
-20z"/>
<path d="M4730 3931 c0 -52 -35 -87 -115 -112 -60 -20 -113 -40 -170 -65 -16
-7 -38 -15 -48 -18 -27 -9 -31 -34 -11 -77 43 -97 136 -127 218 -71 22 16 76
52 118 81 96 65 128 106 128 160 0 61 -63 141 -110 141 -6 0 -10 -18 -10 -39z"/>
<path d="M3468 3884 c-19 -39 -49 -80 -73 -101 -40 -34 -115 -73 -141 -73 -45
0 30 -81 92 -100 80 -24 147 16 219 129 35 57 33 104 -7 163 -18 27 -39 48
-45 48 -7 0 -27 -30 -45 -66z"/>
<path d="M5524 3844 c-32 -18 -68 -38 -79 -44 -11 -6 -33 -19 -50 -30 -16 -11
-39 -24 -50 -30 -11 -5 -27 -14 -35 -20 -22 -14 -163 -95 -180 -103 -8 -4 -28
-16 -45 -27 -16 -11 -41 -25 -55 -30 -13 -6 -27 -14 -30 -18 -3 -4 -25 -17
-50 -30 -25 -13 -58 -32 -75 -42 -16 -11 -49 -28 -71 -38 -71 -34 -69 -58 9
-97 29 -14 79 -41 112 -60 33 -19 69 -39 80 -45 11 -6 34 -19 50 -30 17 -10
50 -29 75 -42 25 -13 49 -29 53 -35 4 -7 17 -13 27 -13 10 0 22 -5 25 -11 4
-5 17 -15 28 -20 12 -5 36 -18 52 -29 17 -11 39 -24 50 -30 11 -5 27 -14 35
-20 23 -15 213 -126 230 -133 8 -4 29 -16 45 -27 17 -11 39 -24 50 -30 11 -6
34 -19 50 -30 17 -11 39 -24 50 -30 25 -13 53 -30 84 -52 31 -23 62 -23 94 2
14 11 28 20 31 20 3 0 47 25 98 56 50 31 101 60 113 65 11 5 27 13 35 19 38
24 206 123 225 131 11 5 34 18 50 29 17 11 37 23 45 27 41 19 167 98 178 111
18 24 16 28 -35 58 -27 15 -50 30 -53 34 -9 11 -110 70 -120 70 -16 0 -12 -18
8 -38 10 -10 40 -35 68 -56 27 -21 49 -43 49 -49 0 -7 -14 -19 -31 -28 -30
-15 -163 -90 -194 -110 -8 -5 -22 -12 -30 -16 -8 -4 -44 -24 -79 -46 -35 -21
-74 -43 -85 -48 -12 -5 -34 -18 -51 -29 -16 -11 -39 -24 -50 -30 -11 -5 -27
-14 -35 -20 -73 -48 -171 -100 -188 -100 -11 0 -44 20 -73 44 -30 24 -73 57
-95 72 -23 16 -96 71 -162 122 -115 87 -124 92 -170 92 -27 0 -52 3 -55 7 -8
7 31 53 45 53 13 0 83 34 153 75 33 20 69 40 80 45 11 6 34 19 50 30 17 11 39
24 50 30 11 6 40 22 65 37 25 14 59 33 75 42 17 9 48 28 70 42 22 14 75 42
118 63 68 32 91 56 54 56 -19 0 -201 93 -210 107 -4 7 -14 13 -22 13 -16 0
-73 29 -93 48 -7 6 -20 12 -28 12 -8 0 -14 4 -14 9 0 5 -12 14 -27 20 -28 11
-64 31 -73 42 -3 3 -28 19 -56 36 l-51 31 -59 -34z m171 -118 c47 -24 96 -53
108 -65 12 -11 40 -27 62 -36 22 -10 50 -26 61 -37 19 -16 20 -24 12 -51 -10
-33 -24 -43 -183 -130 -38 -22 -77 -45 -85 -52 -23 -20 -111 -62 -145 -69 -17
-4 -46 -22 -65 -42 -19 -19 -46 -46 -59 -60 -41 -41 -83 -31 -206 49 -38 25
-86 59 -105 75 -21 18 -53 32 -80 37 -87 14 -93 46 -17 97 28 20 68 44 87 53
19 10 46 26 60 35 64 44 184 110 201 110 11 0 19 6 19 13 0 8 26 27 58 42 31
16 65 35 75 43 14 13 61 27 103 31 7 0 51 -19 99 -43z"/>
<path d="M5722 3848 c6 -18 28 -21 28 -4 0 9 -7 16 -16 16 -9 0 -14 -5 -12
-12z"/>
<path d="M5760 3820 c0 -5 9 -10 21 -10 11 0 17 5 14 10 -3 6 -13 10 -21 10
-8 0 -14 -4 -14 -10z"/>
<path d="M7046 3757 c-19 -44 -54 -73 -101 -83 l-40 -8 34 -4 c18 -2 38 1 44
7 6 6 20 11 30 11 23 0 77 56 77 80 0 33 -29 32 -44 -3z"/>
<path d="M4210 3718 c-14 -7 -66 -31 -117 -55 -50 -24 -96 -43 -102 -43 -6 0
-25 -6 -43 -14 -105 -43 -141 -49 -315 -48 -66 1 -113 -3 -113 -8 0 -6 9 -10
19 -10 10 0 21 -7 25 -15 3 -8 14 -15 25 -15 11 0 46 -7 78 -15 47 -13 72 -13
133 -4 41 6 88 17 103 25 16 8 35 14 44 14 8 0 27 6 41 13 15 8 43 21 62 29
135 60 252 127 247 142 -5 15 -57 18 -87 4z"/>
<path d="M7998 3573 c-24 -21 -52 -43 -63 -50 -11 -7 -51 -31 -90 -54 -38 -24
-81 -49 -95 -57 -90 -49 -150 -83 -224 -129 -46 -28 -94 -54 -105 -58 -12 -3
-21 -11 -21 -16 0 -5 -5 -9 -11 -9 -6 0 -44 -20 -84 -44 -39 -24 -82 -47 -93
-50 -12 -4 -22 -12 -22 -17 0 -5 -5 -9 -11 -9 -6 0 -59 -29 -118 -64 -58 -35
-133 -78 -166 -96 -33 -18 -62 -35 -65 -39 -3 -3 -21 -14 -40 -25 -63 -33
-104 -57 -135 -77 -16 -10 -39 -23 -50 -28 -12 -5 -61 -33 -110 -63 -50 -30
-97 -57 -105 -61 -8 -4 -28 -16 -45 -27 -16 -11 -39 -24 -51 -29 -19 -8 -137
-77 -174 -101 -8 -6 -22 -13 -30 -17 -8 -3 -74 -41 -146 -85 -73 -43 -141 -78
-152 -78 -12 0 -24 -4 -27 -10 -8 -12 -129 -13 -153 -1 -9 5 -28 14 -42 20
-14 6 -41 21 -60 32 -19 12 -83 50 -141 85 -59 35 -112 64 -118 64 -6 0 -11 4
-11 9 0 5 -10 13 -22 17 -11 3 -62 31 -112 61 -49 30 -99 59 -111 64 -11 5
-33 18 -50 29 -16 11 -39 24 -50 29 -11 5 -37 21 -58 35 -21 14 -44 26 -52 26
-8 0 -15 4 -15 8 0 5 -24 21 -52 36 -29 15 -60 31 -68 36 -97 60 -170 100
-179 100 -6 0 -11 4 -11 9 0 5 -12 14 -27 20 -16 6 -41 20 -58 30 -16 11 -50
30 -75 43 -25 13 -47 25 -50 28 -13 13 -81 43 -86 37 -7 -7 36 -67 49 -67 5 0
26 -13 46 -28 20 -16 76 -50 125 -76 49 -26 103 -58 119 -72 16 -13 34 -24 40
-24 7 0 38 -18 71 -40 32 -22 64 -40 71 -40 6 0 29 -13 51 -30 21 -16 47 -30
56 -30 9 0 23 -8 30 -17 7 -10 36 -29 63 -42 28 -13 73 -38 100 -55 84 -53 89
-55 138 -77 26 -12 52 -30 58 -40 5 -11 16 -19 24 -19 17 0 96 -41 131 -69 15
-12 32 -21 38 -21 6 0 64 -27 130 -60 112 -57 123 -60 190 -60 52 0 87 7 131
25 33 14 70 25 82 25 12 0 27 9 33 20 6 11 23 23 38 26 15 4 42 20 60 36 19
16 47 31 63 35 16 3 34 14 40 24 5 11 18 19 28 19 10 0 35 14 56 30 21 17 45
30 55 30 9 0 25 9 34 19 10 11 32 25 49 32 18 7 46 23 62 35 52 38 145 84 170
84 14 0 25 4 25 9 0 13 71 64 91 66 10 1 26 8 36 16 33 26 81 49 104 49 21 0
22 -1 4 -20 -10 -11 -25 -20 -34 -20 -8 0 -26 -11 -40 -24 -15 -13 -50 -36
-78 -51 -29 -15 -53 -31 -53 -36 0 -5 -10 -13 -23 -18 -13 -5 -45 -24 -71 -42
-26 -19 -55 -39 -64 -44 -10 -6 -35 -22 -57 -36 -55 -35 -144 -79 -160 -79 -8
0 -18 -8 -24 -17 -11 -20 -68 -54 -177 -107 -39 -19 -76 -42 -84 -50 -7 -9
-19 -16 -26 -16 -8 0 -14 -4 -14 -10 0 -5 -8 -10 -19 -10 -10 0 -24 -7 -32
-16 -7 -8 -45 -31 -85 -50 -56 -26 -85 -34 -131 -34 -63 0 -95 -11 -72 -25 7
-5 44 -10 83 -13 59 -3 80 0 124 19 28 12 52 26 52 31 0 4 5 8 11 8 6 0 67 34
136 75 68 41 127 75 130 75 3 0 42 23 88 50 46 28 88 50 94 50 6 0 11 4 11 8
0 5 21 19 48 32 26 13 49 26 52 29 3 4 16 12 30 18 37 18 108 59 122 70 7 6
42 26 78 45 36 20 81 45 100 57 19 11 44 25 56 30 19 9 138 78 174 101 8 6 27
15 43 21 15 6 27 14 27 19 0 4 8 10 18 14 9 3 24 10 32 15 8 5 53 32 100 59
47 28 101 59 120 71 19 11 42 24 50 27 25 11 185 107 190 114 3 4 15 12 28 19
12 7 20 16 17 22 -8 11 -60 12 -83 0 -9 -5 -28 -13 -42 -19 -46 -18 -125 -57
-130 -64 -3 -3 -18 -10 -33 -13 -21 -6 -27 -4 -27 9 0 9 12 19 28 22 15 4 29
10 32 13 9 11 90 61 99 61 5 0 14 7 21 15 7 8 20 15 30 15 9 0 25 10 36 21 10
12 43 37 72 56 28 18 52 38 52 43 0 6 7 10 15 10 8 0 37 14 65 30 28 17 56 30
61 30 6 0 26 7 45 16 54 26 59 12 15 -41 -68 -82 -47 -98 55 -43 94 51 96 53
106 169 4 56 6 104 4 107 -3 2 -24 -13 -48 -35z m-698 -529 c0 -3 -15 -11 -34
-19 -18 -8 -48 -26 -65 -41 -17 -14 -38 -23 -46 -20 -9 3 -21 -4 -31 -19 -16
-24 -43 -33 -57 -18 -10 9 23 43 41 43 8 0 27 11 44 25 16 14 38 25 48 25 10
0 20 7 24 15 5 14 76 23 76 9z m-256 -126 c-3 -13 -7 -23 -8 -23 -1 0 -28 -17
-88 -56 -60 -38 -59 -38 -69 -11 -7 19 -5 22 16 22 13 0 27 5 30 11 8 12 106
78 118 78 5 1 5 -9 1 -21z"/>
<path d="M3120 3477 c0 -15 41 -57 56 -57 14 0 103 -58 137 -89 19 -18 25 -31
21 -45 -6 -20 -5 -20 12 -5 11 9 24 14 31 12 16 -6 53 15 53 30 0 7 -24 23
-52 37 -29 13 -55 27 -58 30 -5 5 -27 17 -113 62 -20 11 -40 24 -43 29 -8 14
-44 11 -44 -4z"/>
<path d="M6230 3457 c0 -16 23 -37 62 -56 45 -23 52 -7 9 23 -23 16 -41 33
-41 37 0 5 -7 9 -15 9 -8 0 -15 -6 -15 -13z"/>
<path d="M6401 3410 c-18 -17 -34 -30 -37 -30 -3 0 -17 -13 -31 -30 -13 -16
-33 -30 -43 -30 -10 0 -22 -9 -25 -20 -3 -11 -10 -20 -15 -20 -5 0 -27 -18
-50 -40 -23 -22 -47 -40 -55 -40 -7 0 -20 -11 -29 -24 -8 -14 -25 -27 -36 -31
-11 -3 -33 -19 -49 -36 -32 -31 -78 -39 -87 -14 -4 8 -11 15 -18 15 -6 0 -19
8 -28 18 -43 46 -80 63 -94 41 -8 -13 44 -58 68 -59 9 0 21 -6 25 -12 8 -13
25 -25 77 -54 23 -13 34 -14 48 -5 25 16 48 14 48 -4 0 -8 -7 -15 -15 -15 -18
0 -19 -14 -4 -42 11 -20 18 -14 120 90 59 62 115 112 123 112 9 0 16 9 16 20
0 13 12 28 30 38 17 9 33 25 36 35 3 10 17 25 31 34 23 16 26 16 35 0 5 -9 16
-17 23 -17 22 0 18 18 -5 25 -26 8 -25 26 1 48 24 21 22 44 -6 63 -19 12 -24
11 -54 -16z"/>
<path d="M3585 3420 c-3 -5 -2 -10 4 -10 5 0 16 -6 23 -12 18 -17 69 -53 88
-61 8 -4 29 -16 45 -27 37 -25 151 -80 165 -80 19 0 10 15 -23 36 -97 65 -223
134 -242 134 -7 0 -18 7 -25 15 -14 17 -26 19 -35 5z"/>
<path d="M6140 3399 c0 -15 42 -48 62 -49 9 0 20 -4 23 -10 3 -5 14 -10 23
-10 11 0 2 14 -28 40 -43 38 -80 52 -80 29z"/>
<path d="M6060 3336 c0 -7 8 -16 18 -20 9 -3 32 -15 51 -26 52 -32 72 -20 23
14 -23 16 -42 33 -42 37 0 5 -11 9 -25 9 -15 0 -25 -6 -25 -14z"/>
<path d="M5980 3285 c0 -9 10 -20 23 -25 12 -6 36 -19 52 -29 55 -35 61 -22
10 24 -51 45 -85 57 -85 30z"/>
<path d="M7765 3234 c-22 -18 -46 -34 -52 -34 -18 0 -17 -82 2 -153 8 -32 15
-74 15 -93 0 -19 5 -44 10 -54 6 -11 13 -47 16 -82 2 -35 11 -101 19 -148 29
-176 36 -227 45 -307 4 -45 11 -87 15 -93 4 -7 11 -51 15 -98 5 -48 13 -112
19 -142 20 -109 33 -196 40 -266 9 -106 51 -142 113 -100 39 26 45 57 24 121
-9 25 -16 67 -16 93 0 26 -7 72 -15 102 -8 30 -15 75 -15 100 0 25 -7 70 -15
100 -8 30 -15 75 -15 100 0 25 -5 63 -11 85 -6 22 -14 76 -19 120 -4 44 -13
105 -19 135 -16 84 -28 167 -56 370 -2 14 -8 66 -14 115 -11 90 -26 151 -39
159 -4 2 -25 -11 -47 -30z"/>
<path d="M5894 3249 c-4 -8 4 -21 22 -36 42 -34 46 -37 79 -53 17 -8 33 -16
38 -18 4 -2 7 2 7 10 0 7 -28 33 -62 58 -74 54 -74 54 -84 39z"/>
<path d="M3945 3176 c-22 -6 -47 -15 -55 -21 -23 -15 -51 -31 -98 -55 -24 -13
-46 -29 -49 -36 -3 -8 -11 -14 -18 -14 -6 0 -30 -13 -53 -30 -23 -16 -56 -38
-74 -48 -32 -17 -93 -54 -133 -80 -11 -6 -31 -18 -45 -25 -13 -6 -35 -22 -49
-34 -13 -13 -29 -23 -35 -23 -24 0 -164 -105 -154 -116 5 -4 116 51 133 67 5
5 16 9 26 9 15 0 67 35 112 74 9 9 21 16 26 16 9 0 97 55 163 101 15 10 31 19
36 19 5 0 28 14 50 30 23 17 46 30 52 30 6 0 18 4 28 9 52 26 114 51 128 51 8
0 17 -7 20 -15 4 -9 14 -13 23 -11 27 9 38 -7 45 -65 8 -63 -11 -149 -45 -205
-11 -17 -19 -40 -19 -51 0 -11 -16 -40 -35 -64 -19 -24 -35 -49 -35 -55 0 -6
-9 -19 -20 -29 -11 -10 -20 -29 -20 -41 0 -15 -10 -30 -27 -41 -16 -9 -44 -31
-64 -48 -20 -16 -50 -38 -67 -47 -39 -21 -43 -43 -7 -34 14 4 59 28 101 54 41
26 87 53 100 60 14 8 34 28 44 45 10 18 25 39 33 47 21 23 77 110 77 120 0 4
6 21 14 37 28 55 36 100 42 231 8 148 4 160 -63 188 -36 16 -33 16 -88 0z"/>
<path d="M5726 3133 c-14 -14 -5 -44 17 -53 29 -13 50 -26 117 -75 99 -73 130
-88 130 -65 0 13 -32 50 -43 50 -10 0 -71 42 -75 53 -2 4 -8 7 -14 7 -5 0 -36
20 -67 45 -32 24 -61 41 -65 38z"/>
<path d="M5637 3074 c-7 -7 33 -54 46 -54 5 0 35 -20 67 -45 32 -25 63 -45 69
-45 5 0 14 -7 18 -15 12 -20 58 -24 58 -5 0 8 -9 16 -20 18 -11 2 -25 9 -30
15 -13 15 -43 34 -72 47 -13 5 -23 14 -23 19 0 5 -8 12 -17 15 -35 13 -73 37
-73 47 0 10 -14 12 -23 3z"/>
<path d="M4190 2925 c0 -8 7 -15 15 -15 9 0 18 -6 21 -14 3 -8 16 -17 30 -20
13 -4 24 -11 24 -16 0 -6 6 -10 13 -10 8 0 24 -9 37 -20 13 -11 29 -20 37 -20
7 0 13 -4 13 -10 0 -5 5 -10 11 -10 6 0 48 -22 94 -50 46 -27 88 -50 94 -50 6
0 11 -4 11 -10 0 -5 5 -10 11 -10 6 0 56 -27 111 -60 54 -33 103 -60 108 -60
5 0 15 -6 22 -13 7 -7 34 -24 61 -37 26 -13 47 -27 47 -32 0 -4 5 -8 11 -8 6
0 45 -20 86 -45 40 -25 78 -45 83 -45 5 0 15 -6 22 -12 8 -7 29 -21 48 -32
155 -83 160 -85 160 -68 0 18 -113 112 -134 112 -9 0 -47 19 -84 43 -89 55
-119 73 -164 94 -23 11 -38 25 -38 36 0 12 -8 17 -26 17 -14 0 -42 11 -62 25
-20 14 -42 25 -48 25 -6 0 -28 14 -49 30 -21 17 -43 30 -50 30 -6 0 -20 9 -30
20 -10 11 -25 20 -34 20 -9 1 -30 9 -47 18 -113 61 -184 105 -184 113 0 5 -8
9 -17 9 -10 0 -36 14 -57 30 -22 17 -51 30 -65 30 -14 0 -35 7 -45 15 -25 19
-36 19 -36 0z"/>
<path d="M3905 2462 c-16 -31 -19 -67 -22 -230 -1 -107 -6 -198 -9 -204 -8
-13 0 -20 18 -13 8 3 22 27 31 53 14 38 17 84 17 234 0 103 -4 189 -8 192 -5
3 -17 -12 -27 -32z"/>
<path d="M3560 2300 c-34 -27 -66 -50 -71 -50 -5 0 -9 -29 -9 -64 0 -71 -6
-96 -23 -96 -34 0 -96 -37 -109 -65 -19 -43 -84 -84 -134 -85 -58 0 -130 33
-138 65 -7 26 -20 32 -31 15 -3 -5 -23 -10 -43 -10 -35 0 -100 -23 -236 -84
-32 -14 -66 -26 -75 -26 -25 0 -61 -29 -61 -49 0 -37 107 -42 172 -9 57 29
171 107 181 124 17 29 42 14 38 -22 -1 -7 5 -38 14 -70 24 -94 87 -131 195
-117 22 3 45 12 51 19 6 8 18 14 25 14 8 0 14 3 14 8 0 4 41 34 91 67 l91 60
-7 62 c-6 56 -4 63 14 73 18 9 21 20 21 75 0 63 15 97 24 53 24 -119 36 -201
36 -243 1 -27 5 -70 11 -95 5 -25 12 -65 16 -89 6 -43 6 -44 -20 -37 -24 6
-28 2 -43 -31 -12 -30 -13 -45 -5 -69 6 -17 11 -42 11 -57 0 -25 41 -66 81
-80 18 -6 39 -101 39 -175 0 -52 35 -81 78 -66 40 14 49 53 29 117 -23 74 -23
127 1 127 11 0 38 13 60 30 23 16 44 30 47 30 3 0 24 14 47 30 22 17 48 30 57
30 9 0 25 7 35 15 11 8 28 15 38 15 17 0 178 147 178 163 0 8 39 67 51 77 17
13 20 58 8 112 -9 46 -20 68 -47 94 -38 37 -68 42 -110 20 -15 -7 -65 -32
-112 -54 -81 -38 -84 -40 -59 -50 24 -10 26 -16 32 -94 5 -77 4 -84 -16 -100
-12 -10 -32 -18 -45 -18 -24 0 -45 -18 -97 -83 -32 -40 -89 -64 -111 -46 -6 5
-14 38 -18 72 -12 126 -36 293 -62 427 -8 42 -14 94 -14 117 0 45 -8 73 -20
73 -4 0 -36 -22 -70 -50z m658 -333 c12 -11 22 -28 22 -37 0 -45 -167 -220
-209 -220 -7 0 -27 -6 -44 -14 -18 -8 -39 -17 -47 -20 -28 -13 -57 -32 -112
-74 -58 -45 -88 -53 -88 -24 1 30 27 55 51 49 21 -6 70 13 95 37 6 6 22 18 34
26 106 69 161 139 175 221 5 27 16 44 42 62 38 27 44 27 81 -6z m-908 -63 c0
-22 -104 -76 -137 -72 -50 6 -33 24 44 49 92 31 93 31 93 23z"/>
<path d="M3377 2240 c-20 -11 -45 -20 -55 -20 -10 0 -23 -5 -29 -11 -6 -6 -20
-16 -32 -23 -102 -57 -191 -121 -191 -137 0 -19 55 -8 111 23 33 18 59 36 59
40 0 5 4 8 9 8 21 0 159 100 174 126 11 19 -2 17 -46 -6z"/>
<path d="M5386 2178 c-13 -76 -26 -233 -26 -307 0 -44 -4 -102 -10 -128 -5
-26 -14 -113 -20 -193 -15 -219 -29 -395 -41 -491 -6 -47 -14 -151 -19 -230
-5 -79 -11 -151 -14 -159 -3 -8 -10 -85 -16 -170 -6 -85 -15 -186 -20 -225
-13 -100 -12 -242 1 -251 17 -10 89 -8 100 3 14 14 38 200 39 299 0 44 5 105
10 135 6 30 14 119 20 199 15 221 29 396 41 490 6 47 15 150 19 230 5 80 12
154 15 165 3 11 10 74 15 140 5 66 14 154 19 195 5 41 11 117 14 168 l6 92
-32 14 c-18 7 -42 23 -54 35 -30 29 -41 26 -47 -11z"/>
</g>
</svg>
